Scream 4 2011 SWESUB 720p BRRip XviD-ASPiRE
 
http://www.imdb.com/title/tt1262416/

Handling:

Skräckmästaren Wes Craven är tillbaka. Nytt årtionde. Nya regler. För tio år sedan 
tystnade skriken och mördaren, som dolde sitt ansikte bakom den numera legendariska 
Scream-masken, försvann. Sidney Prescott har lyckats återvända till ett relativt 
normalt liv, mycket tack vare sitt skrivande. Men nu är det dags igen - mördaren 
har återvänt och skriken får en ny dimension.

iNFO:

Genre: Skräck, Mysterium, Thriller
Regi: Wes Craven
Medverkande: Neve Campbell, Courteney Cox, David Arquette, Anna Paquin
Produktionsland: USA
Språk: Engelska
Text: Svenska

General:
Format                           : AVI
Format/Info                      : Audio Video Interleave
Format profile                   : OpenDML
File size                        : 2.91 GiB
Duration                         : 1h 50mn
Overall bit rate                 : 3 757 Kbps

Video:
ID                               : 0
Format                           : MPEG-4 Visual
Format profile                   : Advanced Simple@L5
Format settings, BVOP            : 1
Format settings, QPel            : No
Format settings, GMC             : No warppoints
Format settings, Matrix          : Default (H.263)
Muxing mode                      : Packed bitstream
Codec ID                         : XVID
Codec ID/Hint                    : XviD
Duration                         : 1h 50mn
Bit rate                         : 3 300 Kbps
Width                            : 1 280 pixels
Height                           : 720 pixels
Display aspect ratio             : 16:9
Frame rate                       : 23.976 fps
Color space                      : YUV
Chroma subsampling               : 4:2:0
Bit depth                        : 8 bits
Scan type                        : Progressive
Compression mode                 : Lossy
Bits/(Pixel*Frame)               : 0.149
Stream size                      : 2.55 GiB (88%)
Writing library                  : XviD 62

Audio:
ID                               : 1
Format                           : AC-3
Format/Info                      : Audio Coding 3
Mode extension                   : CM (complete main)
Codec ID                         : 2000
Duration                         : 1h 50mn
Bit rate mode                    : Constant
Bit rate                         : 448 Kbps
Channel(s)                       : 6 channels
Channel positions                : Front: L C R, Side: L R, LFE
Sampling rate                    : 48.0 KHz
Bit depth                        : 16 bits
Compression mode                 : Lossy
Stream size                      : 355 MiB (12%)
Alignment                        : Split accross interleaves
Interleave, duration             : 64 ms (1.53 video frames)
Interleave, preload duration     : 500 ms

ASPiRE